<svg width="182" height="187" viewBox="0 0 182 187" fill="none" xmlns="http://www.w3.org/2000/svg">
<circle cx="91" cy="94" r="80" fill="#08135A"/>
<path d="M90.5781 3.29688C40.541 3.29688 0 43.8379 0 93.875C0 143.912 40.541 184.453 90.5781 184.453C140.615 184.453 181.156 143.912 181.156 93.875C181.156 43.8379 140.615 3.29688 90.5781 3.29688ZM90.5781 38.3594C108.109 38.3594 122.719 52.9688 122.719 70.5C122.719 88.3965 108.109 102.641 90.5781 102.641C72.6816 102.641 58.4375 88.3965 58.4375 70.5C58.4375 52.9688 72.6816 38.3594 90.5781 38.3594ZM90.5781 164C69.0293 164 49.6719 154.504 36.8887 139.164C43.8281 126.381 57.3418 117.25 73.0469 117.25C73.7773 117.25 74.5078 117.615 75.6035 117.98C80.3516 119.441 85.0996 120.172 90.5781 120.172C95.6914 120.172 100.805 119.441 105.188 117.98C106.283 117.615 107.014 117.25 108.109 117.25C123.449 117.25 136.963 126.381 143.902 139.164C131.119 154.504 111.762 164 90.5781 164Z" fill="#F2F4FD"/>
</svg>
