<?xml version="1.0" standalone="no"?>
<!DOCTYPE svg PUBLIC "-//W3C//DTD SVG 1.1//EN" "http://www.w3.org/Graphics/SVG/1.1/DTD/svg11.dtd" >
<svg xmlns="http://www.w3.org/2000/svg">
<metadata>Generated by IcoMoon</metadata>
<defs>
<font id="icomoon" horiz-adv-x="1024">
<font-face units-per-em="1024" ascent="960" descent="-64" />
<missing-glyph horiz-adv-x="1024" />
<glyph unicode="&#x20;" horiz-adv-x="512" d="" />
<glyph unicode="&#xe900;" glyph-name="arrow-left" d="M492.962 751.059l-3.589-3.098-298.667-298.667c-1.086-1.086-2.094-2.249-3.015-3.481l3.015 3.481c-1.581-1.581-2.962-3.286-4.143-5.084-0.562-0.86-1.090-1.755-1.574-2.677-0.206-0.389-0.392-0.762-0.57-1.137-0.544-1.143-1.035-2.357-1.451-3.606-0.096-0.296-0.178-0.555-0.257-0.815-0.893-2.922-1.377-6.058-1.377-9.308 0-1.638 0.123-3.247 0.36-4.819 0.077-0.494 0.165-0.993 0.264-1.491 0.211-1.067 0.474-2.103 0.787-3.119 0.155-0.497 0.327-1.012 0.512-1.522 0.362-0.994 0.759-1.936 1.198-2.853 0.234-0.495 0.503-1.021 0.788-1.542 0.565-1.025 1.167-1.994 1.817-2.927 0.167-0.245 0.355-0.507 0.548-0.766 0.248-0.326 0.32-0.421 0.393-0.516l2.705-3.073 298.667-298.667c12.497-12.497 32.758-12.497 45.255 0 11.361 11.361 12.393 29.138 3.098 41.666l-3.098 3.589-244.025 244.039h520.064c17.673 0 32 14.327 32 32 0 16.2-12.039 29.589-27.658 31.708l-4.342 0.292h-520.064l244.025 244.039c11.361 11.361 12.393 29.138 3.098 41.666l-3.098 3.589c-11.361 11.361-29.138 12.393-41.666 3.098z" />
<glyph unicode="&#xe901;" glyph-name="arrow-right" d="M531.038 751.059l3.589-3.098 298.667-298.667c1.086-1.086 2.094-2.249 3.015-3.481l-3.015 3.481c1.581-1.581 2.962-3.286 4.143-5.084 0.562-0.86 1.090-1.755 1.574-2.677 0.206-0.389 0.392-0.762 0.57-1.137 0.544-1.143 1.035-2.357 1.451-3.606 0.096-0.296 0.178-0.555 0.257-0.815 0.893-2.922 1.377-6.058 1.377-9.308 0-1.638-0.123-3.247-0.36-4.819-0.077-0.494-0.165-0.993-0.264-1.491-0.211-1.067-0.474-2.103-0.787-3.119-0.155-0.497-0.327-1.012-0.512-1.522-0.362-0.994-0.759-1.936-1.198-2.853-0.234-0.495-0.503-1.021-0.788-1.542-0.565-1.025-1.167-1.994-1.817-2.927-0.167-0.245-0.355-0.507-0.548-0.766-0.248-0.326-0.32-0.421-0.393-0.516l-2.705-3.073-298.667-298.667c-12.497-12.497-32.758-12.497-45.255 0-11.361 11.361-12.393 29.138-3.098 41.666l3.098 3.589 244.025 244.039h-520.064c-17.673 0-32 14.327-32 32 0 16.2 12.039 29.589 27.658 31.708l4.342 0.292h520.064l-244.025 244.039c-11.361 11.361-12.393 29.138-3.098 41.666l3.098 3.589c11.361 11.361 29.138 12.393 41.666 3.098z" />
<glyph unicode="&#xe902;" glyph-name="ban" d="M512 885.334c253.315 0 458.667-205.352 458.667-458.667s-205.352-458.667-458.667-458.667c-253.315 0-458.667 205.352-458.667 458.667s205.352 458.667 458.667 458.667zM211.228 682.213c-58.559-68.855-93.894-158.074-93.894-255.546 0-217.968 176.698-394.667 394.667-394.667 97.472 0 186.691 35.335 255.546 93.894zM512 821.334c-97.472 0-186.691-35.335-255.546-93.894l556.319-556.319c58.559 68.855 93.894 158.074 93.894 255.546 0 217.968-176.698 394.667-394.667 394.667z" />
<glyph unicode="&#xe903;" glyph-name="bell" d="M597.333 21.334c0-58.91-47.756-106.667-106.667-106.667s-106.667 47.756-106.667 106.667c0 15.174 3.168 29.608 8.88 42.676l195.571 0.006c5.713-13.070 8.882-27.506 8.882-42.682zM925.558 271.906l-67.582 114.717v209.295c0 46.142-10.436 91.136-31.055 133.964-19.473 40.278-47.091 76.86-81.964 108.471-65.036 59.016-149.673 94.833-234.691 99.676h-0.127c-5.982 0.382-11.964 0.51-17.945 0.637-0.509 0-1.018 0-1.4 0h-0.127c-0.382 0-0.636 0-1.018 0-6.236 0-12.345-0.255-18.582-0.637-84.636-5.099-168.891-40.788-233.673-99.676-34.873-31.611-62.364-68.193-81.709-108.471-20.618-42.828-31.055-87.822-31.055-133.964v-209.295l-68.473-114.462c-8.909-14.786-13.491-31.738-13.491-48.946 0-52.515 42.636-95.215 95.073-95.215h705.855c52.436 0 95.073 42.7 95.073 95.215v0.255c0 17.080-4.455 33.778-13.109 48.436z" />
<glyph unicode="&#xe904;" glyph-name="calendar" d="M149.328 426.667h725.336c11.781-0.006 21.336-9.555 21.336-21.336v-319.998c0-47.128-38.205-85.333-85.333-85.333h-597.333c-47.128 0-85.333 38.205-85.333 85.333v319.998c0 11.782 9.546 21.336 21.328 21.336zM277.333 170.667h-42.667c-10.473 0-19.183-7.547-20.99-17.499l-0.344-3.835v-42.667c0-10.473 7.547-19.183 17.499-20.99l3.835-0.344h42.667c10.473 0 19.183 7.547 20.99 17.499l0.344 3.835v42.667c0 11.782-9.551 21.333-21.333 21.333zM448 170.667h-42.667c-10.473 0-19.183-7.547-20.99-17.499l-0.344-3.835v-42.667c0-10.473 7.547-19.183 17.499-20.99l3.835-0.344h42.667c10.473 0 19.183 7.547 20.99 17.499l0.344 3.835v42.667c0 11.782-9.551 21.333-21.333 21.333zM618.667 170.667h-42.667c-10.473 0-19.183-7.547-20.99-17.499l-0.344-3.835v-42.667c0-10.473 7.547-19.183 17.499-20.99l3.835-0.344h42.667c10.473 0 19.183 7.547 20.99 17.499l0.344 3.835v42.667c0 11.782-9.551 21.333-21.333 21.333zM789.333 170.667h-42.667c-11.782 0-21.333-9.551-21.333-21.333v-42.667c0-11.782 9.551-21.333 21.333-21.333h42.667c11.782 0 21.333 9.551 21.333 21.333v42.667c0 11.782-9.551 21.333-21.333 21.333zM277.333 341.334h-42.667c-10.473 0-19.183-7.547-20.99-17.499l-0.344-3.835v-42.667c0-10.473 7.547-19.183 17.499-20.99l3.835-0.344h42.667c10.473 0 19.183 7.547 20.99 17.499l0.344 3.835v42.667c0 11.782-9.551 21.333-21.333 21.333zM448 341.334h-42.667c-10.473 0-19.183-7.547-20.99-17.499l-0.344-3.835v-42.667c0-10.473 7.547-19.183 17.499-20.99l3.835-0.344h42.667c10.473 0 19.183 7.547 20.99 17.499l0.344 3.835v42.667c0 11.782-9.551 21.333-21.333 21.333zM618.667 341.334h-42.667c-10.473 0-19.183-7.547-20.99-17.499l-0.344-3.835v-42.667c0-10.473 7.547-19.183 17.499-20.99l3.835-0.344h42.667c10.473 0 19.183 7.547 20.99 17.499l0.344 3.835v42.667c0 11.782-9.551 21.333-21.333 21.333zM789.333 341.334h-42.667c-10.473 0-19.183-7.547-20.99-17.499l-0.344-3.835v-42.667c0-10.473 7.547-19.183 17.499-20.99l3.835-0.344h42.667c10.473 0 19.183 7.547 20.99 17.499l0.344 3.835v42.667c0 11.782-9.551 21.333-21.333 21.333zM682.667 853.334c21.881 0 39.915-16.471 42.38-37.691l0.287-4.976v-85.333h85.333c47.128 0 85.333-38.205 85.333-85.333v-106.667c-0.012-11.779-9.562-21.326-21.341-21.333h-725.333c-10.473-0.007-19.183 7.539-20.99 17.491l-0.336 3.842v106.667c0 47.128 38.205 85.333 85.333 85.333h85.333v85.333c0 21.881 16.471 39.915 37.691 42.38l4.976 0.287c23.564 0 42.667-19.103 42.667-42.667v-85.333h256v85.333c0 20.198 14.035 37.118 32.884 41.54l4.807 0.84 4.976 0.287z" />
<glyph unicode="&#xe905;" glyph-name="camera" d="M640 725.334c47.128 0 85.333-38.205 85.333-85.333v-152.363l145.869 104.18c19.176 13.695 45.823 9.253 59.518-9.923 5.168-7.236 7.946-15.906 7.946-24.798v-260.859c0-23.564-19.103-42.667-42.667-42.667-8.892 0-17.562 2.778-24.798 7.946l-145.869 104.18v-152.363c0-47.128-38.205-85.333-85.333-85.333h-469.333c-47.128 0-85.333 38.205-85.333 85.333v426.667c0 47.128 38.205 85.333 85.333 85.333h469.333z" />
<glyph unicode="&#xe906;" glyph-name="car" d="M874.011 551.896c-4.66 1.165-6.99 4.66-8.155 9.32l-25.629 125.966c-10.485 71.063-71.063 123.486-142.125 123.486h-359.973c-72.228 0-132.805-52.423-142.125-123.486l-25.629-125.966c-1.165-4.66-3.495-8.155-8.155-9.32-44.268-15.144-76.887-57.083-76.887-107.176v-339.003c0-27.959 23.299-51.258 51.258-51.258h57.083c27.959 0 51.258 23.299 51.258 51.258v73.392c0 6.99 5.825 11.65 11.65 11.65h525.397c6.99 0 11.65-5.825 11.65-11.65v-73.392c0-27.959 23.299-51.258 51.258-51.258h57.083c27.959 0 51.258 23.299 51.258 51.258v340.168c-1.165 48.928-33.784 90.867-79.217 106.011zM304.346 672.037c2.33 17.474 17.474 29.124 33.784 29.124h359.973c17.474 0 31.454-12.815 33.784-29.124l20.969-100.337c1.165-6.99-4.66-12.815-11.65-12.815h-446.18c-6.99 0-12.815 5.825-11.65 12.815l20.969 100.337zM381.233 367.832c0-27.959-23.299-51.258-51.258-51.258h-41.939c-27.959 0-51.258 23.299-51.258 51.258v15.144c0 27.959 23.299 51.258 51.258 51.258h41.939c27.959 0 51.258-23.299 51.258-51.258v-15.144zM799.454 367.832c0-27.959-23.299-51.258-51.258-51.258h-41.939c-27.959 0-51.258 23.299-51.258 51.258v15.144c0 27.959 23.299 51.258 51.258 51.258h41.939c27.959 0 51.258-23.299 51.258-51.258v-15.144z" />
<glyph unicode="&#xe907;" glyph-name="chevron-down" d="M233.373 577.294c11.361 11.361 29.138 12.393 41.666 3.098l3.589-3.098 233.373-233.358 233.373 233.358c11.361 11.361 29.138 12.393 41.666 3.098l3.589-3.098c11.361-11.361 12.393-29.138 3.098-41.666l-3.098-3.589-256-256c-11.361-11.361-29.138-12.393-41.666-3.098l-3.589 3.098-256 256c-12.497 12.497-12.497 32.758 0 45.255z" />
<glyph unicode="&#xe908;" glyph-name="chevron-left" d="M662.627 705.294c11.361-11.361 12.393-29.138 3.098-41.666l-3.098-3.589-233.358-233.373 233.358-233.373c11.361-11.361 12.393-29.138 3.098-41.666l-3.098-3.589c-11.361-11.361-29.138-12.393-41.666-3.098l-3.589 3.098-256 256c-11.361 11.361-12.393 29.138-3.098 41.666l3.098 3.589 256 256c12.497 12.497 32.758 12.497 45.255 0z" />
<glyph unicode="&#xe909;" glyph-name="chevron-right" d="M361.373 705.294c-11.361-11.361-12.393-29.138-3.098-41.666l3.098-3.589 233.358-233.373-233.358-233.373c-11.361-11.361-12.393-29.138-3.098-41.666l3.098-3.589c11.361-11.361 29.138-12.393 41.666-3.098l3.589 3.098 256 256c11.361 11.361 12.393 29.138 3.098 41.666l-3.098 3.589-256 256c-12.497 12.497-32.758 12.497-45.255 0z" />
<glyph unicode="&#xe90a;" glyph-name="chevron-up" d="M233.373 276.040c11.361-11.361 29.138-12.393 41.666-3.098l3.589 3.098 233.373 233.358 233.373-233.358c11.361-11.361 29.138-12.393 41.666-3.098l3.589 3.098c11.361 11.361 12.393 29.138 3.098 41.666l-3.098 3.589-256 256c-11.361 11.361-29.138 12.393-41.666 3.098l-3.589-3.098-256-256c-12.497-12.497-12.497-32.758 0-45.255z" />
<glyph unicode="&#xe90b;" glyph-name="download-cloud" d="M533.333 416c16.2 0 29.589-12.039 31.708-27.658l0.292-4.342-0.004-306.692 116.043 115.986c11.361 11.361 29.138 12.393 41.666 3.098l3.589-3.098c11.361-11.361 12.393-29.138 3.098-41.666l-3.098-3.589-170.667-170.667c-1.086-1.086-2.249-2.094-3.481-3.015l3.481 3.015c-1.581-1.581-3.286-2.962-5.084-4.143-0.838-0.547-1.71-1.063-2.608-1.538-0.455-0.243-0.913-0.47-1.375-0.686-1.039-0.486-2.106-0.917-3.199-1.291-0.374-0.126-0.734-0.241-1.096-0.351-2.917-0.886-6.035-1.364-9.266-1.364-0.519 0.003-0.79 0.009-1.061 0.017l1.061-0.017c-1.638 0-3.247 0.123-4.819 0.36-0.494 0.077-0.993 0.165-1.491 0.264-1.037 0.205-2.044 0.459-3.031 0.76-0.661 0.203-1.333 0.432-1.998 0.683-0.735 0.278-1.434 0.573-2.119 0.891-0.633 0.291-1.286 0.621-1.93 0.974-1.098 0.607-2.138 1.261-3.135 1.97-0.158 0.109-0.337 0.239-0.514 0.37-1.417 1.072-2.539 2.049-3.589 3.098l-170.667 170.667c-12.497 12.497-12.497 32.758 0 45.255 11.361 11.361 29.138 12.393 41.666 3.098l3.589-3.098 116.035-115.986 0.004 306.692c0 17.673 14.327 32 32 32zM447.668 798.046c141.51-16.299 260.271-111.406 308.175-243.372l3.666-10.631 29.799-0.043c103.567 0.081 195.62-64.815 230.746-161.464l3.321-9.77c32.323-102.021-5.214-213.223-92.755-274.782-14.457-10.166-34.417-6.688-44.583 7.769s-6.688 34.417 7.769 44.583c64.705 45.5 92.45 127.693 68.558 203.1-22.972 72.507-88.588 122.65-163.944 126.345l-9.087 0.219h-53.76c-14.61 0-27.365 9.895-30.996 24.047-31.849 124.122-136.931 215.757-264.232 230.419s-250.464-50.684-309.697-164.315c-59.233-113.632-42.272-252.020 42.649-347.984 11.712-13.235 10.477-33.459-2.758-45.171s-33.459-10.477-45.171 2.758c-102.491 115.818-122.962 282.839-51.473 419.98s220.132 216.007 373.772 198.311z" />
<glyph unicode="&#xe90c;" glyph-name="facebook" d="M85.333 71.108c0-39.287 31.824-71.108 71.108-71.108h711.118c39.287 0 71.108 31.82 71.108 71.108v711.118c0 39.285-31.82 71.108-71.108 71.108h-711.116c-39.285 0-71.11-31.824-71.11-71.108v-711.118zM506.98 128v289.616h-80.313v108.609h80.313c0 186.621 8.824 199.109 261.020 199.109v-108.607c-132.925 0-120.472-6.698-120.472-90.505h120.472v-108.609h-120.472v-289.614h-140.547z" />
<glyph unicode="&#xe90d;" glyph-name="file-pdf" d="M565.333 810.667c0 23.564-19.103 42.667-42.667 42.667l-273.036-0.234c-44.154-3.258-78.965-40.113-78.965-85.099v-682.667l0.234-6.369c3.258-44.154 40.113-78.965 85.099-78.965l518.369 0.234c44.154 3.258 78.965 40.113 78.965 85.099v437.333c0 23.564-19.103 42.667-42.667 42.667h-213.333c-17.673 0-32 14.327-32 32v213.333zM340.715 422.4c43.605 0 74.965-31.659 74.965-75.563s-31.659-75.563-74.965-75.563v0h-40.619v-57.941h-48.384v209.067zM517.227 422.4c67.2 0 106.624-48.085 106.624-104.533s-39.125-104.533-106.624-104.533v0h-78.848v209.067zM779.157 422.4v-40.619h-79.445v-56.448h79.445v-39.723h-79.445v-72.277h-48.384v209.067h127.829zM512.747 381.782v0c41.216 0 61.227-30.763 61.227-63.915s-20.011-63.915-61.227-63.915h-25.984v127.829h25.984zM333.248 382.976v0c19.413 0 33.451-15.232 33.451-36.139s-14.037-36.139-33.451-36.139h-33.152v72.277h33.152zM629.333 821.334v-170.667c0-11.782 9.551-21.333 21.333-21.333h170.667l-192 192z" />
<glyph unicode="&#xe90e;" glyph-name="file" d="M565.333 810.667v-213.333c0-17.673 14.327-32 32-32h213.333c23.564 0 42.667-19.103 42.667-42.667v-437.333c0-44.986-34.811-81.842-78.965-85.099l-6.369-0.234h-512c-44.986 0-81.842 34.811-85.099 78.965l-0.234 6.369v682.667c0 44.986 34.811 81.842 78.965 85.099l6.369 0.234h266.667c23.564 0 42.667-19.103 42.667-42.667zM682.667 245.334h-341.333c-17.673 0-32-14.327-32-32s14.327-32 32-32h341.333c17.673 0 32 14.327 32 32s-14.327 32-32 32zM682.667 416h-341.333c-17.673 0-32-14.327-32-32s14.327-32 32-32h341.333c17.673 0 32 14.327 32 32s-14.327 32-32 32zM426.667 586.667h-85.333c-17.673 0-32-14.327-32-32s14.327-32 32-32h85.333c17.673 0 32 14.327 32 32s-14.327 32-32 32zM629.333 821.334l192-192h-170.667c-11.782 0-21.333 9.551-21.333 21.333v170.667z" />
<glyph unicode="&#xe90f;" glyph-name="flag" d="M181.333 810.667c0 8.487 3.371 16.626 9.373 22.627 8.36 8.36 24 18.787 48.076 28.417 37.223 14.889 85.253 23.622 145.218 23.622 44.86 0 78.951-6.724 129.913-24.85v0l24.819-9.192 53.118-20.851c59.347-22.784 91.127-30.44 133.483-30.44 52.035 0 92.006 7.267 121.449 19.045 9.608 3.843 17.142 7.809 22.801 11.581v0l3.64 2.566 3.444 3.002c20.397 15.717 51.333 1.481 51.333-25.527v0-512c0-8.487-3.371-16.626-9.373-22.627-8.36-8.36-24-18.787-48.076-28.417-37.223-14.889-85.253-23.622-145.218-23.622-51.762 0-89.186 8.953-154.732 34.042v0l-53.118 20.851c-59.347 22.784-91.127 30.44-133.483 30.44-52.035 0-92.006-7.267-121.449-19.045-6.745-2.698-12.467-5.456-17.237-8.165l0.019-282.123c0-17.673-14.327-32-32-32-16.2 0-29.589 12.039-31.708 27.658l-0.292 4.342zM384 821.334c-52.035 0-92.006-7.267-121.449-19.045-1.601-0.641-3.145-1.284-4.632-1.93v0l-8.249-3.887-4.379-2.317v-441.941l3.023 1.091c32.527 11.538 72.624 18.651 120.943 19.849v0l14.743 0.18c51.762 0 89.186-8.953 154.732-34.042v0l53.118-20.851c59.347-22.784 91.127-30.44 133.483-30.44 52.035 0 92.006 7.267 121.449 19.045 1.601 0.641 3.145 1.284 4.632 1.93v0l8.249 3.887 4.294 2.36v441.941l-2.938-1.133c-32.527-11.538-72.624-18.651-120.943-19.849v0l-14.743-0.18c-51.762 0-89.186 8.953-154.732 34.042v0l-53.118 20.851c-59.347 22.784-91.127 30.44-133.483 30.44z" />
<glyph unicode="&#xe910;" glyph-name="instagram" d="M512 661.334c-128.333 0-234.667-104.5-234.667-234.667s104.5-234.667 234.667-234.667c130.167 0 234.667 106.333 234.667 234.667s-106.333 234.667-234.667 234.667zM512 276.334c-82.5 0-150.333 67.833-150.333 150.333s67.833 150.333 150.333 150.333c82.5 0 150.333-67.833 150.333-150.333s-67.833-150.333-150.333-150.333zM789.333 661.334c0-23.564-19.103-42.667-42.667-42.667s-42.667 19.103-42.667 42.667c0 23.564 19.103 42.667 42.667 42.667s42.667-19.103 42.667-42.667zM887.742 800.602c-46.968 48.774-113.806 74.065-189.677 74.065h-372.129c-157.161 0-261.935-104.774-261.935-261.935v-370.323c0-77.677 25.29-144.516 75.871-193.29 48.774-46.968 113.806-70.452 187.871-70.452h368.516c77.677 0 142.71 25.29 189.677 70.452 48.774 46.968 74.065 113.806 74.065 191.484v372.129c0 75.871-25.29 140.903-72.258 187.871zM880.516 240.602c0-56-19.871-101.161-52.387-131.871s-77.677-46.968-131.871-46.968h-368.516c-54.194 0-99.355 16.258-131.871 46.968-32.516 32.516-48.774 77.677-48.774 133.677v370.323c0 54.194 16.258 99.355 48.774 131.871 30.71 30.71 77.677 46.968 131.871 46.968h372.129c54.194 0 99.355-16.258 131.871-48.774 30.71-32.516 48.774-77.677 48.774-130.065v-372.129z" />
<glyph unicode="&#xe911;" glyph-name="lifebuoy" d="M977.699 545.649c-43.070 169.052-176.589 302.57-346.717 346.717-3.23 25.842-25.842 46.301-52.761 46.301h-132.442c-26.919 0-49.531-20.458-52.761-46.301-169.052-43.070-302.57-176.589-346.717-346.717-25.842-3.23-46.301-25.842-46.301-52.761v-132.442c0-26.919 20.458-49.531 46.301-52.761 43.070-169.052 176.589-302.57 346.717-346.717 3.23-25.842 25.842-46.301 52.761-46.301h132.442c26.919 0 49.531 20.458 52.761 46.301 169.052 43.070 302.57 176.589 346.717 346.717 25.842 3.23 46.301 25.842 46.301 52.761v132.442c0 26.919-20.458 48.454-46.301 52.761zM919.554 540.265l-159.361-17.228c-26.919 68.913-81.834 123.828-150.747 150.747l17.228 159.361c142.132-39.84 253.039-150.747 292.879-292.879zM593.295 232.312c-9.691 10.768-23.689 18.305-39.84 18.305h-82.911c-16.151 0-30.149-6.461-39.84-18.305-49.531 21.535-90.448 62.452-111.983 113.060 10.768 9.691 18.305 23.689 18.305 39.84v82.911c0 16.151-6.461 30.149-18.305 39.84 21.535 50.608 61.375 90.448 111.983 111.983 9.691-10.768 23.689-18.305 39.84-18.305h82.911c16.151 0 30.149 6.461 39.84 18.305 50.608-21.535 90.448-61.375 111.983-111.983-10.768-9.691-18.305-23.689-18.305-39.84v-82.911c0-16.151 6.461-30.149 18.305-39.84-20.458-50.608-61.375-91.525-111.983-113.060zM398.402 833.144l17.228-159.361c-68.913-26.919-123.828-81.834-150.747-150.747l-159.361 17.228c39.84 142.132 150.747 253.039 292.879 292.879zM105.523 311.992l159.361 17.228c26.919-68.913 81.834-123.828 150.747-150.747l-17.228-159.361c-142.132 39.84-253.039 150.747-292.879 292.879zM626.675 19.113l-17.228 159.361c68.913 26.919 123.828 81.834 150.747 150.747l159.361-17.228c-39.84-142.132-150.747-253.039-292.879-292.879z" />
<glyph unicode="&#xe912;" glyph-name="link" d="M432.21 586.819l11.818-0.561c71.001-5.085 136.292-40.757 178.929-97.757 10.586-14.152 7.695-34.206-6.457-44.792s-34.206-7.695-44.792 6.457c-31.514 42.131-79.773 68.497-132.252 72.255-48.98 3.508-97.128-13.001-133.576-45.474l-7.627-7.201-127.61-127.603c-68.72-71.151-67.737-184.25 2.209-254.196 67.615-67.615 175.553-70.787 246.586-9.201l7.213 6.602 72.96 72.96c12.497 12.497 32.758 12.497 45.255 0 11.361-11.361 12.393-29.138 3.098-41.666l-3.098-3.589-73.357-73.35c-96.264-92.975-249.279-91.645-343.913 2.989-92.076 92.076-95.823 239.421-9.961 336.351l7.363 7.959 127.996 127.996c47.529 47.546 112.348 73.382 179.215 71.822zM896.402 810.642c92.076-92.076 95.823-239.421 9.961-336.351l-7.363-7.959-127.996-127.996c-50.324-50.343-120.033-76.346-191.034-71.261s-136.292 40.757-178.929 97.757c-10.586 14.152-7.695 34.206 6.457 44.792s34.206 7.695 44.792-6.457c31.514-42.131 79.773-68.497 132.252-72.255 48.98-3.508 97.128 13.001 133.576 45.474l7.627 7.201 127.61 127.603c68.72 71.151 67.737 184.25-2.209 254.196-67.615 67.615-175.553 70.787-246.646 9.141l-7.22-6.608-73.387-72.96c-12.533-12.46-32.794-12.401-45.255 0.132-11.328 11.394-12.308 29.174-2.977 41.675l3.109 3.58 73.717 73.284c96.264 92.975 249.279 91.645 343.913-2.989z" />
<glyph unicode="&#xe913;" glyph-name="map-pin" d="M512 896c212.077 0 384-171.923 384-384 0-298.667-384-554.667-384-554.667s-384 256-384 554.667c0 212.077 171.923 384 384 384zM512 640c-70.692 0-128-57.308-128-128s57.308-128 128-128c70.692 0 128 57.308 128 128s-57.308 128-128 128z" />
<glyph unicode="&#xe914;" glyph-name="monitor" d="M341.333 42.667c-23.564 0-42.667 19.103-42.667 42.667 0 21.881 16.471 39.915 37.691 42.38l4.976 0.287h128v85.376l-298.667-0.043c-47.128 0-85.333 38.205-85.333 85.333v426.667c0 47.128 38.205 85.333 85.333 85.333h682.667c47.128 0 85.333-38.205 85.333-85.333v-426.667c0-47.128-38.205-85.333-85.333-85.333l-298.667 0.043v-85.376h128c23.564 0 42.667-19.103 42.667-42.667 0-21.881-16.471-39.915-37.691-42.38l-4.976-0.287h-341.333z" />
<glyph unicode="&#xe915;" glyph-name="more" d="M597.333 725.334c0-47.128-38.205-85.333-85.333-85.333s-85.333 38.205-85.333 85.333c0 47.128 38.205 85.333 85.333 85.333s85.333-38.205 85.333-85.333zM597.333 426.667c0-47.128-38.205-85.333-85.333-85.333s-85.333 38.205-85.333 85.333c0 47.128 38.205 85.333 85.333 85.333s85.333-38.205 85.333-85.333zM597.333 128c0-47.128-38.205-85.333-85.333-85.333s-85.333 38.205-85.333 85.333c0 47.128 38.205 85.333 85.333 85.333s85.333-38.205 85.333-85.333z" />
<glyph unicode="&#xe916;" glyph-name="note-double" d="M366.864 216.257v500.361c0 31.701 20.717 59.79 51.275 69.554l466.265 148.92c38.922 12.436 80.719-8.623 93.331-47.037 2.382-7.274 3.6-14.872 3.6-22.518v-682.807c0-94.211-88.488-170.586-197.615-170.586-109.153 0-197.615 76.374-197.615 170.586 0 94.214 88.462 170.588 197.615 170.588 48.711 0 93.305-15.215 127.747-40.435v341.389c0 13.46-11.058 24.369-24.705 24.369-2.667 0-5.335-0.427-7.873-1.269l-424.157-140.638c-10.074-3.334-16.833-12.634-16.833-23.1v-428.382c0-94.211-88.488-170.586-197.615-170.586s-197.615 76.374-197.615 170.586c0 94.214 88.488 170.588 197.615 170.588 48.167 0 92.295-14.87 126.582-39.584z" />
<glyph unicode="&#xe917;" glyph-name="note" d="M431.315 252.133l196.34 654.917c7.144 23.832 31.248 37.013 53.862 29.513 10.694-3.55 19.678-11.406 24.937-21.835 12.49-24.675 25.2-54.499 38.129-89.47 47.989-129.856 47.989-129.856 129.506-211.072 81.472-81.216 179.16-220.081 28.75-292.598-29.889-16.465 43.826 113.968-28.75 145.7-72.62 31.732-166.451 134.161-180.344 207.521-13.849 73.36-50.049-32.841-106.453-219.593-33.089-109.397-66.791-223.321-101.15-341.771-2.717-110.196-100.931-198.778-221.715-198.778-122.493 0-221.759 91.112-221.759 203.483s99.266 203.438 221.759 203.438c66.528 0 126.262-26.894 166.889-69.455z" />
<glyph unicode="&#xe918;" glyph-name="play" d="M512 938.667c282.77 0 512-229.23 512-512s-229.23-512-512-512c-282.77 0-512 229.23-512 512s229.23 512 512 512zM448 648.293c-35.346 0-64-28.654-64-64v0-315.251c0-15.502 5.627-30.478 15.835-42.144 23.276-26.601 63.708-29.296 90.309-6.021v0l180.143 157.626c2.138 1.871 4.15 3.882 6.021 6.021 23.276 26.601 20.58 67.034-6.021 90.309v0l-180.143 157.626c-11.667 10.208-26.642 15.835-42.144 15.835z" />
<glyph unicode="&#xe919;" glyph-name="search" d="M469.333 842.667c206.186 0 373.333-167.147 373.333-373.333 0-91.57-32.967-175.44-87.68-240.388l163.641-163.651c12.497-12.497 12.497-32.758 0-45.255-11.361-11.361-29.138-12.393-41.666-3.098l-3.589 3.098-163.651 163.641c-64.948-54.713-148.818-87.68-240.388-87.68-206.186 0-373.333 167.147-373.333 373.333s167.147 373.333 373.333 373.333zM469.333 778.667c-170.84 0-309.333-138.493-309.333-309.333s138.493-309.333 309.333-309.333c83.776 0 159.773 33.303 215.475 87.393 0.869 1.251 1.868 2.406 2.964 3.501l3.377 2.836c54.163 55.714 87.517 131.763 87.517 215.603 0 170.84-138.493 309.333-309.333 309.333z" />
<glyph unicode="&#xe91a;" glyph-name="settings" d="M298.667 373.334c17.673 0 32-14.327 32-32 0-16.2-12.039-29.589-27.658-31.708l-4.342-0.292h-96v-266.667c0-17.673-14.327-32-32-32-16.2 0-29.589 12.039-31.708 27.658l-0.292 4.342v266.667h-96c-17.673 0-32 14.327-32 32 0 16.2 12.039 29.589 27.658 31.708l4.342 0.292h256zM512 458.667c16.2 0 29.589-12.039 31.708-27.658l0.292-4.342v-384c0-17.673-14.327-32-32-32-16.2 0-29.589 12.039-31.708 27.658l-0.292 4.342v384c0 17.673 14.327 32 32 32zM981.333 288c17.673 0 32-14.327 32-32 0-16.2-12.039-29.589-27.658-31.708l-4.342-0.292h-96v-181.333c0-17.673-14.327-32-32-32-16.2 0-29.589 12.039-31.708 27.658l-0.292 4.342v181.333h-96c-17.673 0-32 14.327-32 32 0 16.2 12.039 29.589 27.658 31.708l4.342 0.292h256zM853.333 842.667c16.2 0 29.589-12.039 31.708-27.658l0.292-4.342v-384c0-17.673-14.327-32-32-32-16.2 0-29.589 12.039-31.708 27.658l-0.292 4.342v384c0 17.673 14.327 32 32 32zM170.667 842.667c16.2 0 29.589-12.039 31.708-27.658l0.292-4.342v-298.667c0-17.673-14.327-32-32-32-16.2 0-29.589 12.039-31.708 27.658l-0.292 4.342v298.667c0 17.673 14.327 32 32 32zM512 842.667c16.2 0 29.589-12.039 31.708-27.658l0.292-4.342v-181.333h96c17.673 0 32-14.327 32-32 0-16.2-12.039-29.589-27.658-31.708l-4.342-0.292h-256c-17.673 0-32 14.327-32 32 0 16.2 12.039 29.589 27.658 31.708l4.342 0.292h96v181.333c0 17.673 14.327 32 32 32z" />
<glyph unicode="&#xe91b;" glyph-name="share" d="M874.667 458.667c16.2 0 29.589-12.039 31.708-27.658l0.292-4.342v-341.333c0-62.401-48.713-113.425-110.186-117.119l-7.148-0.214h-512c-62.401 0-113.425 48.713-117.119 110.186l-0.214 7.148v341.333c0 17.673 14.327 32 32 32 16.2 0 29.589-12.039 31.708-27.658l0.292-4.342v-341.333c0-27.614 20.987-50.327 47.88-53.058l5.453-0.275h512c27.614 0 50.327 20.987 53.058 47.88l0.275 5.453v341.333c0 17.673 14.327 32 32 32zM537.676 885.042l0.469-0.070c0.501-0.076 1.001-0.164 1.498-0.263 1.067-0.211 2.103-0.474 3.119-0.787 0.497-0.155 1.012-0.327 1.522-0.512 0.994-0.362 1.936-0.759 2.853-1.198 0.495-0.234 1.021-0.503 1.542-0.788 1.025-0.565 1.994-1.167 2.927-1.817 0.245-0.167 0.507-0.355 0.766-0.548 0.326-0.248 0.421-0.32 0.516-0.393l3.073-2.705 170.667-170.667c12.497-12.497 12.497-32.758 0-45.255-11.361-11.361-29.138-12.393-41.666-3.098l-3.589 3.098-116.039 116.025v-477.397c0-17.673-14.327-32-32-32-16.2 0-29.589 12.039-31.708 27.658l-0.292 4.342v477.397l-116.039-116.025c-11.361-11.361-29.138-12.393-41.666-3.098l-3.589 3.098c-11.361 11.361-12.393 29.138-3.098 41.666l3.098 3.589 170.667 170.667 3.073 2.705c0.176 0.136 0.353 0.27 0.532 0.402l-3.605-3.107c1.581 1.581 3.286 2.962 5.084 4.143 0.86 0.562 1.755 1.090 2.677 1.574 0.389 0.206 0.762 0.392 1.137 0.57 1.211 0.576 2.497 1.091 3.822 1.522 0.226 0.071 0.412 0.129 0.599 0.186 2.922 0.893 6.058 1.377 9.308 1.377l0.248-0.001 4.094-0.291z" />
<glyph unicode="&#xe91c;" glyph-name="sound" d="M836.284 750.944c179.055-179.109 179.055-469.445 0-648.555-12.495-12.499-32.756-12.502-45.255-0.007s-12.502 32.756-0.007 45.255c154.071 154.117 154.071 403.941 0 558.059-12.495 12.499-12.492 32.76 0.007 45.255s32.76 12.492 45.255-0.007zM449.343 750.321c20.952 16.762 51.99 1.844 51.99-24.988v0-597.333c0-26.832-31.038-41.75-51.99-24.988v0l-204.607 163.697-159.403-0.043c-16.2 0-29.589 12.039-31.708 27.658v0l-0.292 4.342v256c0 17.673 14.327 32 32 32v0l159.445 0.043zM685.671 600.331c95.774-95.803 95.774-251.099 0-346.901-12.495-12.499-32.756-12.502-45.255-0.007s-12.502 32.756-0.007 45.255c70.789 70.811 70.789 185.595 0 256.405-12.495 12.499-12.492 32.76 0.007 45.255s32.76 12.492 45.255-0.007z" />
<glyph unicode="&#xe91d;" glyph-name="star" d="M666.011 583l187.161-27.356c23.316-3.408 39.455-25.072 36.047-48.389-1.356-9.278-5.731-17.851-12.448-24.394l-135.361-131.842c-10.064-9.802-14.658-23.931-12.283-37.777l31.937-186.207c3.983-23.225-11.615-45.282-34.84-49.265-9.25-1.587-18.765-0.079-27.072 4.289l-167.292 87.977c-12.432 6.538-27.286 6.538-39.719 0l-167.292-87.977c-20.856-10.968-46.654-2.952-57.622 17.904-4.368 8.307-5.876 17.822-4.289 27.072l31.937 186.207c2.375 13.847-2.219 27.975-12.283 37.777l-135.361 131.842c-16.88 16.441-17.236 43.454-0.795 60.335 6.543 6.717 15.116 11.092 24.394 12.448l187.161 27.356c13.882 2.029 25.879 10.753 32.089 23.333l83.663 169.492c10.43 21.13 36.015 29.804 57.145 19.374 8.412-4.152 15.222-10.962 19.374-19.374l83.663-169.492c6.21-12.58 18.207-21.304 32.089-23.333z" />
<glyph unicode="&#xe91e;" glyph-name="twitter" d="M981.333 711.134c-34.611-15.4-71.608-25.8-110.595-30.6 39.782 24 70.415 62 84.737 107.2-37.197-22.2-78.371-38.4-122.331-47-35.207 37.8-85.333 61.4-140.631 61.4-106.418 0-192.547-86.8-192.547-193.8 0-15.2 1.591-30 4.973-44.2-160.124 8-302.148 85.2-397.029 202.6-16.51-28.6-26.057-62-26.057-97.4 0-67.2 34.014-126.6 85.731-161.4-31.627 0.8-61.464 9.6-87.322 24.2 0-0.8 0-1.6 0-2.4 0-94 66.437-172.2 154.555-190-16.112-4.4-33.218-6.8-50.723-6.8-12.333 0-24.466 1.2-36.202 3.6 24.466-77 95.677-133 180.016-134.6-65.84-52-148.985-83-239.291-83-15.515 0-30.831 1-45.949 2.8 85.134-55.6 186.381-87.6 294.987-87.6 354.462 0 548.202 295.4 548.202 551.6 0 8.4-0.199 16.8-0.597 25 37.594 27.4 70.216 61.6 96.075 100.4z" />
<glyph unicode="&#xe91f;" glyph-name="video" d="M754.837 390.777l-475.765-305.849c-19.822-12.742-46.22-7.004-58.963 12.818-4.424 6.882-6.776 14.891-6.776 23.072v611.698c0 23.564 19.103 42.667 42.667 42.667 8.181 0 16.19-2.352 23.072-6.776l475.765-305.849c19.822-12.742 25.56-39.141 12.818-58.963-3.305-5.141-7.677-9.513-12.818-12.818z" />
<glyph unicode="&#xe920;" glyph-name="watch" d="M604.884 928.002c58.456 0.235 107.76-42.495 116.457-99.54l0.873-7.203 13.834-151.397c65.554-60.423 106.619-147.014 106.619-243.195 0-96.621-41.441-183.563-107.518-244.021l-13.785-150.539c-5.261-58.219-52.437-103.287-109.961-106.582l-7.242-0.193h-184.617c-58.456-0.235-107.76 42.495-116.457 99.54l-0.873 7.203-13.79 150.964c-65.828 60.442-107.089 147.217-107.089 243.628 0 96.621 41.441 183.563 107.518 244.021l13.785 150.539c5.242 58.004 52.102 102.99 109.544 106.547l7.233 0.228h185.471zM357.101 134.451l8.85-96.584c2.325-25.728 22.659-45.806 47.968-48.278l5.495-0.256h184.876c25.833-0.104 47.734 18.252 52.567 43.138l0.77 5.428 8.809 96.306c-46.096-24.392-98.652-38.204-154.435-38.204-55.97 0-108.692 13.906-154.899 38.451zM512 693.334c-64.96 0-124.495-23.227-170.753-61.83-0.678-0.741-1.464-1.402-2.281-2.024-57.331-48.871-93.633-121.602-93.633-202.812 0-147.276 119.391-266.667 266.667-266.667 64.782 0 124.168 23.1 170.371 61.512 0.822 0.861 1.771 1.668 2.763 2.419 57.267 48.867 93.532 121.566 93.532 202.736 0 147.276-119.391 266.667-266.667 266.667zM512 586.667c16.2 0 29.589-12.039 31.708-27.658l0.292-4.342v-114.731l54.627-54.642c11.361-11.361 12.393-29.138 3.098-41.666l-3.098-3.589c-11.361-11.361-29.138-12.393-41.666-3.098l-3.589 3.098-64 64c-4.801 4.801-7.919 10.97-8.974 17.591l-0.399 5.036v128c0 17.673 14.327 32 32 32zM605.013 864.001h-185.569c-25.738-0.025-47.497-18.358-52.304-43.157l-0.766-5.409-8.809-96.306c46.096 24.392 98.652 38.204 154.435 38.204 56.14 0 109.013-13.991 155.322-38.675l-8.845 96.809c-2.325 25.728-22.659 45.806-47.968 48.278l-5.495 0.256z" />
<glyph unicode="&#xe921;" glyph-name="x" d="M745.373 705.294c12.497 12.497 32.758 12.497 45.255 0 11.361-11.361 12.393-29.138 3.098-41.666l-3.098-3.589-512-512c-12.497-12.497-32.758-12.497-45.255 0-11.361 11.361-12.393 29.138-3.098 41.666l3.098 3.589 512 512zM233.373 705.294c11.361 11.361 29.138 12.393 41.666 3.098l3.589-3.098 512-512c12.497-12.497 12.497-32.758 0-45.255-11.361-11.361-29.138-12.393-41.666-3.098l-3.589 3.098-512 512c-12.497 12.497-12.497 32.758 0 45.255z" />
<glyph unicode="&#xe922;" glyph-name="zap" d="M173.548 341.334h338.452l-33.641-269.131c-1.461-11.691 6.831-22.353 18.523-23.815 7.21-0.901 14.383 1.929 19.035 7.511l350.925 421.11c7.543 9.051 6.32 22.503-2.731 30.046-3.834 3.195-8.667 4.945-13.657 4.945h-338.452l33.641 269.131c1.461 11.691-6.831 22.353-18.523 23.815-7.21 0.901-14.383-1.929-19.035-7.511l-350.925-421.11c-7.543-9.051-6.32-22.503 2.731-30.046 3.834-3.195 8.667-4.945 13.657-4.945z" />
<glyph unicode="&#xe923;" glyph-name="bell-2" d="M512 885.334c159.058 0 288-128.942 288-288 0-125.459 22.735-220.187 60.093-288.677 12.66-23.21 26.020-41.469 39.138-55.315l6.557-6.595 4.911-4.425c0.669-0.563 1.261-1.039 1.772-1.432l1.281-0.931c25.089-16.726 15.007-54.768-13.36-58.353l-4.39-0.272h-768c-30.153 0-42.866 37.246-21.252 55.964l4.782 3.592 4.008 3.38 5.76 5.496c1.094 1.098 2.253 2.289 3.471 3.575 13.118 13.846 26.478 32.105 39.138 55.315 35.49 65.065 57.783 153.811 59.923 270.088l0.169 18.589c0 159.058 128.942 288 288 288zM512 821.334c-120.619 0-218.971-95.336-223.813-214.767l-0.187-9.233c0-135.875-25.265-241.146-67.907-319.323-5.695-10.442-11.438-19.983-17.143-28.664l-2.757-4.013h623.573l-2.715 4.013c-3.804 5.787-7.624 11.957-11.436 18.521l-5.708 10.143c-40.612 74.455-65.462 173.484-67.736 300.12l-0.171 19.203-0.187 9.233c-4.842 119.43-103.194 214.767-223.813 214.767zM558.133 58.724c8.868 15.287 28.449 20.491 43.737 11.623s20.491-28.449 11.623-43.737c-20.991-36.186-59.66-58.459-101.493-58.459s-80.503 22.273-101.493 58.459c-8.868 15.287-3.664 34.869 11.623 43.737 14.013 8.129 31.635 4.434 41.305-8.014l2.431-3.609c9.541-16.448 27.118-26.572 46.133-26.572 16.902 0 32.668 7.999 42.664 21.329l3.469 5.243z" />
<glyph unicode="&#xe924;" glyph-name="credit-card" d="M896 800h-768c-64.801 0-117.333-52.532-117.333-117.333v-512c0-64.801 52.532-117.333 117.333-117.333h768c64.801 0 117.333 52.532 117.333 117.333v512c0 64.801-52.532 117.333-117.333 117.333zM128 736h768c29.455 0 53.333-23.878 53.333-53.333v-512c0-29.455-23.878-53.333-53.333-53.333h-768c-29.455 0-53.333 23.878-53.333 53.333v512c0 29.455 23.878 53.333 53.333 53.333zM981.333 544c17.673 0 32-14.327 32-32 0-16.2-12.039-29.589-27.658-31.708l-4.342-0.292h-938.667c-17.673 0-32 14.327-32 32 0 16.2 12.039 29.589 27.658 31.708l4.342 0.292h938.667z" />
<glyph unicode="&#xe925;" glyph-name="download" d="M896 330.667c16.2 0 29.589-12.039 31.708-27.658l0.292-4.342v-170.667c0-62.401-48.713-113.425-110.186-117.119l-7.148-0.214h-597.333c-62.401 0-113.425 48.713-117.119 110.186l-0.214 7.148v170.667c0 17.673 14.327 32 32 32 16.2 0 29.589-12.039 31.708-27.658l0.292-4.342v-170.667c0-27.614 20.987-50.327 47.88-53.058l5.453-0.275h597.333c27.614 0 50.327 20.987 53.058 47.88l0.275 5.453v170.667c0 17.673 14.327 32 32 32zM276.039 534.628c11.361 11.361 29.138 12.393 41.666 3.098l3.589-3.098 190.706-190.691 190.706 190.691c11.361 11.361 29.138 12.393 41.666 3.098l3.589-3.098c11.361-11.361 12.393-29.138 3.098-41.666l-3.098-3.589-213.333-213.333c-11.361-11.361-29.138-12.393-41.666-3.098l-3.589 3.098-213.333 213.333c-12.497 12.497-12.497 32.758 0 45.255zM512 842.667c16.2 0 29.589-12.039 31.708-27.658l0.292-4.342v-512c0-17.673-14.327-32-32-32-16.2 0-29.589 12.039-31.708 27.658l-0.292 4.342v512c0 17.673 14.327 32 32 32z" />
<glyph unicode="&#xe926;" glyph-name="plus-circle" d="M512 885.334c-253.315 0-458.667-205.352-458.667-458.667s205.352-458.667 458.667-458.667c253.315 0 458.667 205.352 458.667 458.667s-205.352 458.667-458.667 458.667zM512 821.334c217.968 0 394.667-176.698 394.667-394.667s-176.698-394.667-394.667-394.667c-217.968 0-394.667 176.698-394.667 394.667s176.698 394.667 394.667 394.667zM512 629.334c16.2 0 29.589-12.039 31.708-27.658l0.292-4.342v-341.333c0-17.673-14.327-32-32-32-16.2 0-29.589 12.039-31.708 27.658l-0.292 4.342v341.333c0 17.673 14.327 32 32 32zM682.667 458.667c17.673 0 32-14.327 32-32 0-16.2-12.039-29.589-27.658-31.708l-4.342-0.292h-341.333c-17.673 0-32 14.327-32 32 0 16.2 12.039 29.589 27.658 31.708l4.342 0.292h341.333z" />
<glyph unicode="&#xe927;" glyph-name="user" d="M682.667 330.667c108.821 0 197.609-85.766 202.458-193.39l0.209-9.277v-85.333c0-17.673-14.327-32-32-32-16.2 0-29.589 12.039-31.708 27.658l-0.292 4.342v85.333c0 73.943-57.875 134.368-130.798 138.447l-7.869 0.22h-341.333c-73.943 0-134.368-57.875-138.447-130.798l-0.22-7.869v-85.333c0-17.673-14.327-32-32-32-16.2 0-29.589 12.039-31.708 27.658l-0.292 4.342v85.333c0 108.821 85.766 197.609 193.39 202.458l9.277 0.209h341.333zM512 842.667c-111.93 0-202.667-90.737-202.667-202.667s90.737-202.667 202.667-202.667c111.93 0 202.667 90.737 202.667 202.667s-90.737 202.667-202.667 202.667zM512 778.667c76.583 0 138.667-62.083 138.667-138.667s-62.083-138.667-138.667-138.667c-76.583 0-138.667 62.083-138.667 138.667s62.083 138.667 138.667 138.667z" />
<glyph unicode="&#xe928;" glyph-name="users" d="M554.667 330.667c108.821 0 197.609-85.766 202.458-193.39l0.209-9.277v-85.333c0-17.673-14.327-32-32-32-16.2 0-29.589 12.039-31.708 27.658l-0.292 4.342v85.333c0 73.943-57.875 134.368-130.798 138.447l-7.869 0.22h-341.333c-73.943 0-134.368-57.875-138.447-130.798l-0.22-7.869v-85.333c0-17.673-14.327-32-32-32-16.2 0-29.589 12.039-31.708 27.658l-0.292 4.342v85.333c0 108.821 85.766 197.609 193.39 202.458l9.277 0.209h341.333zM384 842.667c-111.93 0-202.667-90.737-202.667-202.667s90.737-202.667 202.667-202.667c111.93 0 202.667 90.737 202.667 202.667s-90.737 202.667-202.667 202.667zM384 778.667c76.583 0 138.667-62.083 138.667-138.667s-62.083-138.667-138.667-138.667c-76.583 0-138.667 62.083-138.667 138.667s62.083 138.667 138.667 138.667zM822.349 301.12c4.418 17.112 21.872 27.402 38.984 22.984 86.343-22.294 147.588-98.228 151.772-186.591l0.228-9.513v-85.333c0-17.673-14.327-32-32-32-16.2 0-29.589 12.039-31.708 27.658l-0.292 4.342v85.309c-0.047 63.193-42.813 118.362-104 134.16-17.112 4.418-27.402 21.872-22.984 38.984zM651.667 813.058c4.384 17.121 21.816 27.446 38.937 23.063 89.676-22.961 152.397-103.765 152.397-196.333s-62.722-173.373-152.397-196.333c-17.121-4.384-34.554 5.942-38.937 23.063s5.942 34.554 23.063 38.937c61.357 15.71 104.272 70.997 104.272 134.333s-42.915 118.623-104.272 134.333c-17.121 4.384-27.446 21.816-23.063 38.937z" />
</font>
</defs>
</svg>
